<svg xmlns="http://www.w3.org/2000/svg" width="171.584" height="48.916" viewBox="0 0 171.584 48.916"><path fill="#fff" d="M75.116 14.07h1.248v-6.983h-1.856v1.583h-1.628v-3.073h8.686v3.074h-1.627v-1.584h-1.856v6.983h1.248v1.538h-4.214v-1.538zM83.012 14.07h1.141v-6.936h-1.141v-1.537h4.107v1.538h-1.246v2.647h4.622v-2.648h-1.247v-1.537h4.106v1.538h-1.139v6.936h1.139v1.538h-4.106v-1.539h1.247v-2.785h-4.622v2.785h1.246v1.538h-4.107v-1.538zM94.97 14.07h1.141v-6.936h-1.141v-1.537h7.47v2.861h-1.644v-1.339h-2.966v2.677h3.026v1.46h-3.026v2.828h2.98v-1.338h1.643v2.862h-7.483v-1.538zM108.919 14.198h2.346v-6.897l-2.031.51-.39-1.425 3.341-.881h.78v8.693h2.307v1.41h-6.353v-1.41zM115.329 10.566c0-2.971 1.953-5.179 4.669-5.179 2.714 0 4.669 2.228 4.669 5.179 0 2.989-1.955 5.198-4.669 5.198-2.716 0-4.669-2.228-4.669-5.198zm7.599 0c0-2.15-1.191-3.751-2.93-3.751s-2.932 1.582-2.932 3.751c0 2.189 1.193 3.751 2.932 3.751s2.93-1.562 2.93-3.751zM125.558 10.566c0-2.971 1.953-5.179 4.669-5.179 2.717 0 4.67 2.228 4.67 5.179 0 2.989-1.953 5.198-4.67 5.198-2.716 0-4.669-2.228-4.669-5.198zm7.6 0c0-2.15-1.193-3.751-2.932-3.751-1.739 0-2.93 1.582-2.93 3.751 0 2.189 1.19 3.751 2.93 3.751 1.739 0 2.932-1.562 2.932-3.751zM135.788 10.566c0-2.971 1.952-5.179 4.668-5.179 2.718 0 4.67 2.228 4.67 5.179 0 2.989-1.952 5.198-4.67 5.198-2.716 0-4.668-2.228-4.668-5.198zm7.599 0c0-2.15-1.19-3.751-2.931-3.751-1.737 0-2.93 1.582-2.93 3.751 0 2.189 1.192 3.751 2.93 3.751 1.74 0 2.931-1.562 2.931-3.751zM73.64 21.887h-.912v-1.535h3.955v1.535h-1.049l2.161 5.49 2.159-5.49h-1.11v-1.535h3.954v1.535h-.911l-3.636 8.579h-.974l-3.637-8.579zM84.131 28.823h1.218v-6.936h-1.218v-1.535h4.152v1.535h-1.215v6.936h1.215v1.537h-4.152v-1.537zM89.94 28.823h1.142v-6.936h-1.142v-1.535h4.184v1.535h-1.323v6.95h2.754v-1.414h1.656v2.938h-7.271v-1.538zM98.354 28.823h1.14v-6.936h-1.14v-1.535h4.182v1.535h-1.322v6.95h2.755v-1.414h1.656v2.938h-7.271v-1.538zM106.645 28.823h.867l2.496-6.952h-1.095v-1.519h5.658v1.519h-1.096l2.493 6.952h.867v1.537h-3.847v-1.523h1.154l-.562-1.641h-3.74l-.563 1.641h1.216v1.523h-3.849v-1.537zm6.464-3.057l-1.399-3.94-1.398 3.94h2.797zM117.734 25.386c0-3.089 2.342-5.218 5.263-5.218 2.327 0 3.879 1.216 3.879 2.418 0 .731-.473 1.23-1.095 1.23-.688 0-1.157-.425-1.157-1.079 0-.197.045-.396.108-.518-.291-.227-.87-.456-1.782-.456-1.947 0-3.437 1.446-3.437 3.606 0 2.205 1.598 3.621 3.285 3.621 1.049 0 1.779-.229 2.418-.64v-1.719h-2.495v-1.461h4.184v5.188h-1.642v-.747c-.7.546-1.598.929-2.724.929-2.463.002-4.805-1.946-4.805-5.154zM128.977 28.823h1.141v-6.936h-1.141v-1.535h7.471v2.857h-1.645v-1.338h-2.965v2.677h3.025v1.459h-3.025v2.829h2.981v-1.336h1.644v2.86h-7.486v-1.537zM137.983 28.214c0-.714.425-1.186 1.051-1.186.669 0 1.094.503 1.094.989 0 .242-.045.425-.137.609.365.258.928.425 1.581.425 1.096 0 1.796-.487 1.796-1.354 0-.821-.837-1.215-1.841-1.566-1.856-.67-3.163-1.262-3.163-3.12 0-1.598 1.291-2.843 3.316-2.843 1.869 0 3.315.958 3.315 2.16 0 .714-.442 1.125-1.021 1.125-.699 0-1.093-.519-1.093-1.019 0-.244.043-.352.106-.473-.274-.167-.701-.303-1.325-.303-.989 0-1.567.502-1.567 1.23 0 .822.837 1.188 1.842 1.553 1.796.64 3.147 1.265 3.147 3.117 0 1.904-1.474 2.983-3.527 2.983-1.977.001-3.574-1.11-3.574-2.327zM73.093 43.575h1.141v-6.937h-1.141v-1.536h7.377v2.86h-1.642v-1.339h-2.875v2.86h2.952v1.477h-2.952v2.614h1.323v1.537h-4.183v-1.536zM81.02 40.106c0-2.938 2.128-5.186 5.172-5.186 3.025 0 5.096 2.266 5.096 5.186 0 2.937-2.13 5.188-5.173 5.188-3.027.001-5.095-2.266-5.095-5.188zm8.487 0c0-2.084-1.414-3.589-3.346-3.589-1.948 0-3.362 1.491-3.362 3.589 0 2.084 1.414 3.593 3.362 3.593 1.932 0 3.346-1.492 3.346-3.593zM93.006 41.46v-4.821h-1.095v-1.536h4.016v1.536h-1.201v4.729c0 1.538.776 2.359 2.054 2.359 1.293 0 2.068-.747 2.068-2.298v-4.791h-1.203v-1.536h3.972v1.536h-1.096v4.791c0 2.616-1.536 3.865-3.741 3.865-2.238.001-3.774-1.248-3.774-3.834zM105.698 38.205v5.37h1.247v1.537h-4.06v-1.537h1.138v-6.937h-1.138v-1.536h2.601l4.929 6.281v-4.745h-1.247v-1.536h4.017v1.536h-1.096v8.487l-.93.032-5.461-6.952zM114.474 43.575h1.14v-6.937h-1.14v-1.536h3.789c3.618 0 5.764 1.886 5.764 4.913 0 3.057-2.024 5.097-5.949 5.097h-3.604v-1.537zm3.847 0c2.587 0 3.927-1.399 3.927-3.542 0-2.191-1.55-3.395-4.047-3.395h-.868v6.937h.988zM124.026 43.575h.869l2.492-6.951h-1.095v-1.521h5.659v1.521h-1.095l2.494 6.951h.868v1.537h-3.849v-1.521h1.156l-.565-1.644h-3.739l-.564 1.644h1.218v1.521h-3.85v-1.537zm6.467-3.056l-1.4-3.94-1.4 3.94h2.8zM136.341 43.575h1.248v-6.983h-1.856v1.585h-1.628v-3.074h8.686v3.074h-1.628v-1.585h-1.855v6.983h1.248v1.537h-4.214v-1.537zM144.029 43.575h1.216v-6.937h-1.216v-1.536h4.153v1.536h-1.217v6.937h1.217v1.537h-4.153v-1.537zM149.004 40.106c0-2.938 2.128-5.186 5.172-5.186 3.026 0 5.096 2.266 5.096 5.186 0 2.937-2.128 5.188-5.172 5.188-3.028.001-5.096-2.266-5.096-5.188zm8.488 0c0-2.084-1.414-3.589-3.346-3.589-1.947 0-3.364 1.491-3.364 3.589 0 2.084 1.417 3.593 3.364 3.593 1.932 0 3.346-1.492 3.346-3.593zM162.893 38.205v5.37h1.247v1.537h-4.06v-1.537h1.14v-6.937h-1.14v-1.536h2.6l4.929 6.281v-4.745h-1.248v-1.536h4.018v1.536h-1.096v8.487l-.928.032-5.462-6.952z"/><path fill="#0084DD" d="M62.359 46.25h-59.289l-2.02-26.943 20.788-16.435 10.78 8.57 11.136-8.592 20.625 16.472-2.02 26.928zm-53.713-6h48.139l1.362-18.203-14.446-11.516-6.247 4.774 5.841 4.354-1.035 15.591h-19.62l-1.057-15.634 6.13-4.577-5.902-4.641-14.527 11.617 1.362 18.235zm19.619-11h8.363l.467-6.863-4.544-3.484-4.758 3.45.472 6.897z"/></svg>