<?xml version="1.0" encoding="utf-8"?>
<!-- Generator: Adobe Illustrator 16.0.4, SVG Export Plug-In . SVG Version: 6.00 Build 0)  -->
<!DOCTYPE svg PUBLIC "-//W3C//DTD SVG 1.1//EN" "http://www.w3.org/Graphics/SVG/1.1/DTD/svg11.dtd">
<svg version="1.1" id="Layer_1" xmlns="http://www.w3.org/2000/svg" xmlns:xlink="http://www.w3.org/1999/xlink" x="0px" y="0px"
	 width="171.584px" height="48.916px" viewBox="0 0 171.584 48.916" enable-background="new 0 0 171.584 48.916"
	 xml:space="preserve">
<g>
	<g>
		<g>
			<path fill="#FFFFFF" d="M75.116,14.07h1.248V7.087h-1.856v1.583H72.88V5.597h8.686v3.074h-1.627V7.087h-1.856v6.983h1.248v1.538
				h-4.214V14.07z"/>
		</g>
		<g>
			<path fill="#FFFFFF" d="M83.012,14.07h1.141V7.134h-1.141V5.597h4.107v1.538h-1.246v2.647h4.622V7.134h-1.247V5.597h4.106v1.538
				h-1.139v6.936h1.139v1.538h-4.106V14.07h1.247v-2.785h-4.622v2.785h1.246v1.538h-4.107V14.07z"/>
		</g>
		<g>
			<path fill="#FFFFFF" d="M94.97,14.07h1.141V7.134H94.97V5.597h7.47v2.861h-1.644V7.119H97.83v2.677h3.026v1.46H97.83v2.828h2.98
				v-1.338h1.643v2.862H94.97V14.07z"/>
		</g>
		<g>
			<path fill="#FFFFFF" d="M108.919,14.198h2.346V7.301l-2.031,0.51l-0.39-1.425l3.341-0.881h0.78v8.693h2.307v1.41h-6.353V14.198z"
				/>
		</g>
		<g>
			<path fill="#FFFFFF" d="M115.329,10.566c0-2.971,1.953-5.179,4.669-5.179c2.714,0,4.669,2.228,4.669,5.179
				c0,2.989-1.955,5.198-4.669,5.198C117.282,15.764,115.329,13.536,115.329,10.566z M122.928,10.566c0-2.15-1.191-3.751-2.93-3.751
				s-2.932,1.582-2.932,3.751c0,2.189,1.193,3.751,2.932,3.751S122.928,12.755,122.928,10.566z"/>
		</g>
		<g>
			<path fill="#FFFFFF" d="M125.558,10.566c0-2.971,1.953-5.179,4.669-5.179c2.717,0,4.67,2.228,4.67,5.179
				c0,2.989-1.953,5.198-4.67,5.198C127.511,15.764,125.558,13.536,125.558,10.566z M133.158,10.566c0-2.15-1.193-3.751-2.932-3.751
				c-1.739,0-2.93,1.582-2.93,3.751c0,2.189,1.19,3.751,2.93,3.751C131.965,14.317,133.158,12.755,133.158,10.566z"/>
		</g>
		<g>
			<path fill="#FFFFFF" d="M135.788,10.566c0-2.971,1.952-5.179,4.668-5.179c2.718,0,4.67,2.228,4.67,5.179
				c0,2.989-1.952,5.198-4.67,5.198C137.74,15.764,135.788,13.536,135.788,10.566z M143.387,10.566c0-2.15-1.19-3.751-2.931-3.751
				c-1.737,0-2.93,1.582-2.93,3.751c0,2.189,1.192,3.751,2.93,3.751C142.196,14.317,143.387,12.755,143.387,10.566z"/>
		</g>
		<g>
			<path fill="#FFFFFF" d="M73.64,21.887h-0.912v-1.535h3.955v1.535h-1.049l2.161,5.49l2.159-5.49h-1.11v-1.535h3.954v1.535h-0.911
				l-3.636,8.579h-0.974L73.64,21.887z"/>
		</g>
		<g>
			<path fill="#FFFFFF" d="M84.131,28.823h1.218v-6.936h-1.218v-1.535h4.152v1.535h-1.215v6.936h1.215v1.537h-4.152V28.823z"/>
		</g>
		<g>
			<path fill="#FFFFFF" d="M89.94,28.823h1.142v-6.936H89.94v-1.535h4.184v1.535h-1.323v6.95h2.754v-1.414h1.656v2.938H89.94V28.823
				z"/>
		</g>
		<g>
			<path fill="#FFFFFF" d="M98.354,28.823h1.14v-6.936h-1.14v-1.535h4.182v1.535h-1.322v6.95h2.755v-1.414h1.656v2.938h-7.271
				V28.823z"/>
		</g>
		<g>
			<path fill="#FFFFFF" d="M106.645,28.823h0.867l2.496-6.952h-1.095v-1.519h5.658v1.519h-1.096l2.493,6.952h0.867v1.537h-3.847
				v-1.523h1.154l-0.562-1.641h-3.74l-0.563,1.641h1.216v1.523h-3.849V28.823z M113.109,25.766l-1.399-3.94l-1.398,3.94H113.109z"/>
		</g>
		<g>
			<path fill="#FFFFFF" d="M117.734,25.386c0-3.089,2.342-5.218,5.263-5.218c2.327,0,3.879,1.216,3.879,2.418
				c0,0.731-0.473,1.23-1.095,1.23c-0.688,0-1.157-0.425-1.157-1.079c0-0.197,0.045-0.396,0.108-0.518
				c-0.291-0.227-0.87-0.456-1.782-0.456c-1.947,0-3.437,1.446-3.437,3.606c0,2.205,1.598,3.621,3.285,3.621
				c1.049,0,1.779-0.229,2.418-0.64v-1.719h-2.495v-1.461h4.184v5.188h-1.642v-0.747c-0.7,0.546-1.598,0.929-2.724,0.929
				C120.076,30.542,117.734,28.594,117.734,25.386z"/>
		</g>
		<g>
			<path fill="#FFFFFF" d="M128.977,28.823h1.141v-6.936h-1.141v-1.535h7.471v2.857h-1.645v-1.338h-2.965v2.677h3.025v1.459h-3.025
				v2.829h2.981V27.5h1.644v2.86h-7.486V28.823z"/>
		</g>
		<g>
			<path fill="#FFFFFF" d="M137.983,28.214c0-0.714,0.425-1.186,1.051-1.186c0.669,0,1.094,0.503,1.094,0.989
				c0,0.242-0.045,0.425-0.137,0.609c0.365,0.258,0.928,0.425,1.581,0.425c1.096,0,1.796-0.487,1.796-1.354
				c0-0.821-0.837-1.215-1.841-1.566c-1.856-0.67-3.163-1.262-3.163-3.12c0-1.598,1.291-2.843,3.316-2.843
				c1.869,0,3.315,0.958,3.315,2.16c0,0.714-0.442,1.125-1.021,1.125c-0.699,0-1.093-0.519-1.093-1.019
				c0-0.244,0.043-0.352,0.106-0.473c-0.274-0.167-0.701-0.303-1.325-0.303c-0.989,0-1.567,0.502-1.567,1.23
				c0,0.822,0.837,1.188,1.842,1.553c1.796,0.64,3.147,1.265,3.147,3.117c0,1.904-1.474,2.983-3.527,2.983
				C139.58,30.542,137.983,29.431,137.983,28.214z"/>
		</g>
		<g>
			<path fill="#FFFFFF" d="M73.093,43.575h1.141v-6.937h-1.141v-1.536h7.377v2.86h-1.642v-1.339h-2.875v2.86h2.952v1.477h-2.952
				v2.614h1.323v1.537h-4.183V43.575z"/>
		</g>
		<g>
			<path fill="#FFFFFF" d="M81.02,40.106c0-2.938,2.128-5.186,5.172-5.186c3.025,0,5.096,2.266,5.096,5.186
				c0,2.937-2.13,5.188-5.173,5.188C83.088,45.295,81.02,43.028,81.02,40.106z M89.507,40.106c0-2.084-1.414-3.589-3.346-3.589
				c-1.948,0-3.362,1.491-3.362,3.589c0,2.084,1.414,3.593,3.362,3.593C88.093,43.699,89.507,42.207,89.507,40.106z"/>
		</g>
		<g>
			<path fill="#FFFFFF" d="M93.006,41.46v-4.821h-1.095v-1.536h4.016v1.536h-1.201v4.729c0,1.538,0.776,2.359,2.054,2.359
				c1.293,0,2.068-0.747,2.068-2.298v-4.791h-1.203v-1.536h3.972v1.536h-1.096v4.791c0,2.616-1.536,3.865-3.741,3.865
				C94.542,45.295,93.006,44.046,93.006,41.46z"/>
		</g>
		<g>
			<path fill="#FFFFFF" d="M105.698,38.205v5.37h1.247v1.537h-4.06v-1.537h1.138v-6.937h-1.138v-1.536h2.601l4.929,6.281v-4.745
				h-1.247v-1.536h4.017v1.536h-1.096v8.487l-0.93,0.032L105.698,38.205z"/>
		</g>
		<g>
			<path fill="#FFFFFF" d="M114.474,43.575h1.14v-6.937h-1.14v-1.536h3.789c3.618,0,5.764,1.886,5.764,4.913
				c0,3.057-2.024,5.097-5.949,5.097h-3.604V43.575z M118.321,43.575c2.587,0,3.927-1.399,3.927-3.542
				c0-2.191-1.55-3.395-4.047-3.395h-0.868v6.937H118.321z"/>
		</g>
		<g>
			<path fill="#FFFFFF" d="M124.026,43.575h0.869l2.492-6.951h-1.095v-1.521h5.659v1.521h-1.095l2.494,6.951h0.868v1.537h-3.849
				v-1.521h1.156l-0.565-1.644h-3.739l-0.564,1.644h1.218v1.521h-3.85V43.575z M130.493,40.519l-1.4-3.94l-1.4,3.94H130.493z"/>
		</g>
		<g>
			<path fill="#FFFFFF" d="M136.341,43.575h1.248v-6.983h-1.856v1.585h-1.628v-3.074h8.686v3.074h-1.628v-1.585h-1.855v6.983h1.248
				v1.537h-4.214V43.575z"/>
		</g>
		<g>
			<path fill="#FFFFFF" d="M144.029,43.575h1.216v-6.937h-1.216v-1.536h4.153v1.536h-1.217v6.937h1.217v1.537h-4.153V43.575z"/>
		</g>
		<g>
			<path fill="#FFFFFF" d="M149.004,40.106c0-2.938,2.128-5.186,5.172-5.186c3.026,0,5.096,2.266,5.096,5.186
				c0,2.937-2.128,5.188-5.172,5.188C151.072,45.295,149.004,43.028,149.004,40.106z M157.492,40.106
				c0-2.084-1.414-3.589-3.346-3.589c-1.947,0-3.364,1.491-3.364,3.589c0,2.084,1.417,3.593,3.364,3.593
				C156.078,43.699,157.492,42.207,157.492,40.106z"/>
		</g>
		<g>
			<path fill="#FFFFFF" d="M162.893,38.205v5.37h1.247v1.537h-4.06v-1.537h1.14v-6.937h-1.14v-1.536h2.6l4.929,6.281v-4.745h-1.248
				v-1.536h4.018v1.536h-1.096v8.487l-0.928,0.032L162.893,38.205z"/>
		</g>
	</g>
	<g>
		<path fill="#0084DD" d="M62.359,46.25H3.07l-2.02-26.943L21.838,2.872l10.78,8.57L43.754,2.85l20.625,16.472L62.359,46.25z
			 M8.646,40.25h48.139l1.362-18.203L43.701,10.531l-6.247,4.774l5.841,4.354L42.26,35.25h-19.62l-1.057-15.634l6.13-4.577
			l-5.902-4.641L7.284,22.015L8.646,40.25z M28.265,29.25h8.363l0.467-6.863l-4.544-3.484l-4.758,3.45L28.265,29.25z"/>
	</g>
</g>
</svg>
