<svg xmlns="http://www.w3.org/2000/svg" width="75" height="75" viewBox="0 0 75 75"><path fill="#fff" d="M18.404 49.515c0 2.393 1.95 4.344 4.346 4.344h31.431999999999995v-1.931h-2.013v-4.829h2.013v-.847h2.4139999999999997v-1.931h-1.448v-4.828h1.448v-1.933h-1.5699999999999998v-1.649l-2.383-4.466h2.505v-2.599l-6.304-7.704h-22.239l-5.734 9.036c-.98.798-1.621 2-1.621 3.359 0 2.38 1.927 4.32 4.303 4.342-1.598.642-2.734 2.203-2.734 4.028 0 1.326.608 2.5 1.549 3.298-2.215.197-3.964 2.043-3.964 4.31zm2.778-15.978c0-.9.5-1.678 1.233-2.092h28.788v4.506h-27.607c-1.331 0-2.414-1.082-2.414-2.414zm3.984 5.956h28.049v4.828h-28.049c-1.332 0-2.416-1.083-2.416-2.414.001-1.33 1.084-2.414 2.416-2.414zm-2.415 7.606h27.485999999999997v4.829h-27.487c-1.331 0-2.414-1.084-2.414-2.413 0-1.334 1.084-2.416 2.415-2.416z"/></svg>