<?xml version="1.0" encoding="utf-8"?>
<!-- Generator: Adobe Illustrator 16.0.4, SVG Export Plug-In . SVG Version: 6.00 Build 0)  -->
<!DOCTYPE svg PUBLIC "-//W3C//DTD SVG 1.1//EN" "http://www.w3.org/Graphics/SVG/1.1/DTD/svg11.dtd">
<svg version="1.1" id="Layer_1" xmlns="http://www.w3.org/2000/svg" xmlns:xlink="http://www.w3.org/1999/xlink" x="0px" y="0px"
	 width="75px" height="75px" viewBox="0 0 75 75" enable-background="new 0 0 75 75" xml:space="preserve">
<g>
	<path fill="#FFFFFF" d="M18.404,49.515c0,2.393,1.95,4.344,4.346,4.344h0.967h26.52h1.932h2.013v-1.931h-2.013v-4.829h2.013v-0.847
		h0.966h1.448v-1.931h-1.448v-4.828h1.448V37.56h-1.448h-0.122v-0.643v-0.966v-0.04l-2.383-4.466h2.505v-2.599l-6.304-7.704H26.605
		l-5.734,9.036c-0.98,0.798-1.621,2-1.621,3.359c0,2.38,1.927,4.32,4.303,4.342c-1.598,0.642-2.734,2.203-2.734,4.028
		c0,1.326,0.608,2.5,1.549,3.298C20.153,45.402,18.404,47.248,18.404,49.515z M21.182,33.537c0-0.9,0.5-1.678,1.233-2.092h28.788
		v4.506H23.596C22.265,35.951,21.182,34.869,21.182,33.537z M25.166,39.493h0.966h27.083v4.828H26.132h-0.966
		c-1.332,0-2.416-1.083-2.416-2.414C22.751,40.577,23.834,39.493,25.166,39.493z M22.751,47.099h0.967h26.519v4.829h-26.52H22.75
		c-1.331,0-2.414-1.084-2.414-2.413C20.336,48.181,21.42,47.099,22.751,47.099z"/>
</g>
</svg>
