<?xml version="1.0" encoding="utf-8"?>
<!-- Generator: Adobe Illustrator 16.0.4, SVG Export Plug-In . SVG Version: 6.00 Build 0)  -->
<!DOCTYPE svg PUBLIC "-//W3C//DTD SVG 1.1//EN" "http://www.w3.org/Graphics/SVG/1.1/DTD/svg11.dtd">
<svg version="1.1" id="Layer_1" xmlns="http://www.w3.org/2000/svg" xmlns:xlink="http://www.w3.org/1999/xlink" x="0px" y="0px"
	 width="75px" height="75px" viewBox="0 0 75 75" enable-background="new 0 0 75 75" xml:space="preserve">
<g>
	<path fill="#FFFFFF" d="M42.392,52.593H32.39c-0.478,0-0.862,0.386-0.862,0.86c0,0.475,0.386,0.86,0.862,0.86h10.002
		c0.475,0,0.861-0.385,0.861-0.86C43.252,52.979,42.867,52.593,42.392,52.593z"/>
	<path fill="#FFFFFF" d="M41.28,56.007H33.5c-0.472,0-0.86,0.386-0.86,0.861c0,0.474,0.385,0.86,0.86,0.86h7.78
		c0.475,0,0.86-0.386,0.86-0.86C42.141,56.393,41.755,56.007,41.28,56.007z"/>
	<path fill="#FFFFFF" d="M43.544,28.733c-0.002-0.007,0-0.014-0.002-0.021c-0.021-0.064-0.061-0.114-0.094-0.17
		c-0.02-0.034-0.032-0.071-0.057-0.102c-0.064-0.081-0.143-0.144-0.23-0.196c-0.008-0.005-0.012-0.013-0.02-0.017
		c-0.001,0-0.002,0-0.002-0.001c-0.161-0.089-0.348-0.113-0.538-0.084c-0.04,0.006-0.08,0.002-0.118,0.013
		c-0.006,0.002-0.012,0-0.018,0.002c-0.6,0.194-1.118,0.452-1.599,0.696l-0.046,0.025c-0.75,0.375-1.369,0.669-1.832,0.292
		l-1.058-0.863c-0.023-0.019-0.052-0.023-0.076-0.04c-0.048-0.032-0.097-0.056-0.15-0.078c-0.05-0.02-0.098-0.036-0.15-0.046
		c-0.058-0.011-0.113-0.015-0.172-0.015c-0.05,0-0.097,0.003-0.146,0.013c-0.059,0.01-0.113,0.028-0.169,0.051
		c-0.049,0.021-0.094,0.044-0.14,0.073c-0.025,0.016-0.054,0.021-0.077,0.041l-1.059,0.863c-0.461,0.376-1.084,0.082-1.832-0.295
		l-0.046-0.024c-0.479-0.242-0.997-0.5-1.596-0.694c-0.007-0.002-0.014,0-0.021-0.002c-0.028-0.008-0.057-0.004-0.086-0.009
		c-0.199-0.037-0.396-0.013-0.565,0.08c-0.002,0.001-0.005,0.001-0.007,0.002c-0.019,0.01-0.029,0.029-0.047,0.04
		c-0.074,0.048-0.144,0.101-0.2,0.171c-0.028,0.035-0.042,0.076-0.064,0.114c-0.031,0.053-0.07,0.099-0.089,0.159
		c-0.002,0.007,0,0.015-0.002,0.022c-0.011,0.038-0.007,0.078-0.013,0.117c-0.01,0.072-0.025,0.143-0.018,0.212
		c0.002,0.024,0.016,0.046,0.021,0.07c0.017,0.085,0.037,0.169,0.078,0.246c0.002,0.004,0.002,0.009,0.004,0.013
		c1.572,2.833,2.457,5.127,2.951,7.604c0.501,2.507,0.604,5.215,0.609,8.836c0,0.472,0.383,0.857,0.856,0.857
		c0.473,0,0.856-0.385,0.856-0.857c-0.003-3.75-0.114-6.557-0.634-9.17c-0.393-1.973-1.018-3.834-2-5.899
		c0.978,0.429,1.876,0.593,2.927-0.262l0.518-0.421l0.517,0.421c1.05,0.855,1.95,0.692,2.927,0.263
		c-0.981,2.064-1.606,3.925-2,5.897c-0.521,2.613-0.631,5.42-0.634,9.17c0,0.472,0.383,0.857,0.857,0.857
		c0.472,0,0.856-0.385,0.856-0.857c0.003-3.622,0.108-6.329,0.605-8.836c0.496-2.475,1.38-4.771,2.953-7.604
		c0.001-0.003,0.001-0.006,0.003-0.009c0.048-0.087,0.075-0.183,0.09-0.282c0.002-0.012,0.009-0.023,0.01-0.035
		c0.008-0.072-0.007-0.146-0.019-0.219C43.551,28.809,43.555,28.771,43.544,28.733z"/>
	<path fill="#FFFFFF" d="M48.216,19.451c-1.406-1.406-3.096-2.546-4.972-3.324c-1.808-0.747-3.786-1.161-5.849-1.161
		c-2.069,0-4.048,0.415-5.855,1.161v0.004c-1.879,0.776-3.565,1.914-4.971,3.32c-1.397,1.393-2.529,3.072-3.307,4.935l-0.018,0.037
		c-0.748,1.804-1.163,3.784-1.163,5.855c0,1.648,0.267,3.246,0.754,4.742c0.503,1.546,1.25,2.994,2.192,4.278
		c1.618,2.213,2.913,3.632,3.917,4.733l0.002-0.001l0.003,0.001c1.776,1.948,2.578,2.826,2.578,5.692
		c0,0.477,0.388,0.861,0.863,0.861h5.037h5.013h0.023c0.474,0,0.858-0.385,0.858-0.861c0-2.895,0.786-3.764,2.577-5.745
		c0.995-1.101,2.275-2.521,3.855-4.68c0.941-1.284,1.689-2.73,2.192-4.275c0.487-1.5,0.753-3.094,0.753-4.748
		C52.701,26.047,50.985,22.219,48.216,19.451z M50.309,34.494c-0.448,1.373-1.109,2.655-1.94,3.792
		c-1.548,2.114-2.782,3.482-3.744,4.544c-1.923,2.127-2.856,3.162-3.003,6.033h-4.196h-4.197c-0.147-2.852-1.1-3.897-3.015-5.987
		l0.001-0.004c-0.984-1.078-2.249-2.462-3.803-4.589c-0.832-1.141-1.493-2.419-1.943-3.793c-0.431-1.323-0.665-2.743-0.665-4.216
		c0-1.845,0.368-3.602,1.027-5.196l0.018-0.044c0.688-1.639,1.692-3.125,2.936-4.367c1.257-1.258,2.752-2.269,4.409-2.954
		l0.004-0.001v0.001c1.592-0.661,3.349-1.025,5.194-1.025c1.846,0,3.603,0.365,5.198,1.025c1.656,0.685,3.153,1.695,4.409,2.954
		c2.458,2.459,3.98,5.856,3.98,9.607C50.979,31.749,50.742,33.167,50.309,34.494z"/>
	<path fill="#FFFFFF" d="M40.17,59.419h-5.558c-0.475,0-0.86,0.386-0.86,0.86c0,0.475,0.385,0.863,0.86,0.863h5.558
		c0.474,0,0.859-0.388,0.859-0.863C41.029,59.806,40.644,59.419,40.17,59.419z"/>
	<path fill="#FFFFFF" d="M31.975,21.85c0.523-0.353,1.071-0.653,1.639-0.892c0.584-0.248,1.203-0.441,1.843-0.569
		c0.611-0.123,1.26-0.19,1.935-0.19c0.475,0,0.86-0.383,0.86-0.858s-0.385-0.86-0.86-0.86c-0.762,0-1.526,0.078-2.271,0.229
		c-0.755,0.152-1.481,0.379-2.172,0.673c-0.688,0.288-1.339,0.642-1.934,1.043v0.003c-0.621,0.416-1.192,0.884-1.7,1.396
		c-0.516,0.514-0.984,1.084-1.398,1.697h0.003l-0.003,0.004c-0.403,0.6-0.756,1.249-1.044,1.931
		c-0.184,0.435,0.02,0.938,0.456,1.123c0.436,0.18,0.938-0.023,1.123-0.459c0.242-0.572,0.541-1.12,0.891-1.636l0.002,0.001
		c0.346-0.514,0.747-1.001,1.189-1.444c0.449-0.449,0.932-0.849,1.439-1.189H31.975z"/>
	<path fill="#FFFFFF" d="M27.882,31.831c-0.123-0.614-0.19-1.259-0.19-1.934c0-0.474-0.385-0.859-0.86-0.859
		c-0.474,0-0.86,0.385-0.86,0.859c0,0.764,0.08,1.524,0.229,2.269c0.151,0.752,0.38,1.482,0.672,2.173
		c0.182,0.436,0.686,0.639,1.121,0.455c0.436-0.18,0.641-0.685,0.458-1.12C28.204,33.089,28.01,32.468,27.882,31.831z"/>
</g>
</svg>
