<svg xmlns="http://www.w3.org/2000/svg" width="75" height="75" viewBox="0 0 75 75"><g fill="#fff"><path d="M42.392 52.593h-10.002c-.478 0-.862.386-.862.86 0 .475.386.86.862.86h10.002c.475 0 .861-.385.861-.86-.001-.474-.386-.86-.861-.86zM41.28 56.007h-7.78c-.472 0-.86.386-.86.861 0 .474.385.86.86.86h7.78c.475 0 .86-.386.86-.86.001-.475-.385-.861-.86-.861zM43.544 28.733l-.002-.021-.094-.17-.057-.102c-.064-.081-.143-.144-.23-.196l-.02-.017-.002-.001c-.161-.089-.348-.113-.538-.084l-.118.013-.018.002c-.6.194-1.118.452-1.599.696l-.046.025c-.75.375-1.369.669-1.832.292l-1.058-.863-.076-.04-.15-.078-.15-.046-.172-.015-.146.013-.169.051-.14.073-.077.041-1.059.863c-.461.376-1.084.082-1.832-.295l-.046-.024c-.479-.242-.997-.5-1.596-.694l-.021-.002-.086-.009c-.199-.037-.396-.013-.565.08l-.007.002-.047.04-.2.171-.064.114-.089.159-.002.022-.013.117-.018.212.021.07.078.246.004.013c1.572 2.833 2.457 5.127 2.951 7.604.501 2.507.604 5.215.609 8.836 0 .472.383.857.856.857s.856-.385.856-.857c-.003-3.75-.114-6.557-.634-9.17-.393-1.973-1.018-3.834-2-5.899.978.429 1.876.593 2.927-.262l.518-.421.517.421c1.05.855 1.95.692 2.927.263-.981 2.064-1.606 3.925-2 5.897-.521 2.613-.631 5.42-.634 9.17 0 .472.383.857.857.857.472 0 .856-.385.856-.857.003-3.622.108-6.329.605-8.836.496-2.475 1.38-4.771 2.953-7.604l.003-.009c.048-.087.075-.183.09-.282l.01-.035-.019-.219-.012-.112zM48.216 19.451c-1.406-1.406-3.096-2.546-4.972-3.324-1.808-.747-3.786-1.161-5.849-1.161-2.069 0-4.048.415-5.855 1.161v.004c-1.879.776-3.565 1.914-4.971 3.32-1.397 1.393-2.529 3.072-3.307 4.935l-.018.037c-.748 1.804-1.163 3.784-1.163 5.855 0 1.648.267 3.246.754 4.742.503 1.546 1.25 2.994 2.192 4.278 1.618 2.213 2.913 3.632 3.917 4.733l.002-.001.003.001c1.776 1.948 2.578 2.826 2.578 5.692 0 .477.388.861.863.861h10.073c.474 0 .858-.385.858-.861 0-2.895.786-3.764 2.577-5.745.995-1.101 2.275-2.521 3.855-4.68.941-1.284 1.689-2.73 2.192-4.275.487-1.5.753-3.094.753-4.748.003-4.228-1.713-8.056-4.482-10.824zm2.093 15.043c-.448 1.373-1.109 2.655-1.94 3.792-1.548 2.114-2.782 3.482-3.744 4.544-1.923 2.127-2.856 3.162-3.003 6.033h-8.393c-.147-2.852-1.1-3.897-3.015-5.987l.001-.004c-.984-1.078-2.249-2.462-3.803-4.589-.832-1.141-1.493-2.419-1.943-3.793-.431-1.323-.665-2.743-.665-4.216 0-1.845.368-3.602 1.027-5.196l.018-.044c.688-1.639 1.692-3.125 2.936-4.367 1.257-1.258 2.752-2.269 4.409-2.954l.004-.001v.001c1.592-.661 3.349-1.025 5.194-1.025 1.846 0 3.603.365 5.198 1.025 1.656.685 3.153 1.695 4.409 2.954 2.458 2.459 3.98 5.856 3.98 9.607 0 1.475-.237 2.893-.67 4.22zM40.17 59.419h-5.558c-.475 0-.86.386-.86.86 0 .475.385.863.86.863h5.558c.474 0 .859-.388.859-.863 0-.473-.385-.86-.859-.86zM31.975 21.85c.523-.353 1.071-.653 1.639-.892.584-.248 1.203-.441 1.843-.569.611-.123 1.26-.19 1.935-.19.475 0 .86-.383.86-.858s-.385-.86-.86-.86c-.762 0-1.526.078-2.271.229-.755.152-1.481.379-2.172.673-.688.288-1.339.642-1.934 1.043v.003c-.621.416-1.192.884-1.7 1.396-.516.514-.984 1.084-1.398 1.697h.003l-.003.004c-.403.6-.756 1.249-1.044 1.931-.184.435.02.938.456 1.123.436.18.938-.023 1.123-.459.242-.572.541-1.12.891-1.636l.002.001c.346-.514.747-1.001 1.189-1.444.449-.449.932-.849 1.439-1.189h.002zM27.882 31.831c-.123-.614-.19-1.259-.19-1.934 0-.474-.385-.859-.86-.859-.474 0-.86.385-.86.859 0 .764.08 1.524.229 2.269.151.752.38 1.482.672 2.173.182.436.686.639 1.121.455.436-.18.641-.685.458-1.12-.248-.585-.442-1.206-.57-1.843z"/></g></svg>