<?xml version="1.0" encoding="utf-8"?>
<!-- Generator: Adobe Illustrator 16.0.4, SVG Export Plug-In . SVG Version: 6.00 Build 0)  -->
<!DOCTYPE svg PUBLIC "-//W3C//DTD SVG 1.1//EN" "http://www.w3.org/Graphics/SVG/1.1/DTD/svg11.dtd">
<svg version="1.1" id="Layer_1" xmlns="http://www.w3.org/2000/svg" xmlns:xlink="http://www.w3.org/1999/xlink" x="0px" y="0px"
	 width="75px" height="75px" viewBox="0 0 75 75" enable-background="new 0 0 75 75" xml:space="preserve">
<g>
	<path fill="#FFFFFF" d="M56.357,32.97c0,1.14-0.188,2.267-0.551,3.349c-1.705,7.715-16.447,17.046-17.074,17.444
		c-0.196,0.122-0.416,0.187-0.64,0.187c-0.225,0-0.448-0.057-0.645-0.187c-0.168-0.108-4.321-2.729-8.532-6.334
		c-0.505-0.436-0.559-1.185-0.135-1.686c0.434-0.499,1.183-0.559,1.687-0.134c3.141,2.682,6.313,4.848,7.631,5.723
		c4.427-2.888,14.202-10.23,15.4-15.65c0.313-0.957,0.454-1.826,0.454-2.709c0-3.075-1.674-5.912-4.369-7.397
		c-3.443-1.91-8.052-1.028-10.572,2.008c-0.451,0.547-1.383,0.547-1.845,0c-2.526-3.041-7.131-3.913-10.569-2.012
		c-2.707,1.489-4.38,4.32-4.38,7.394c0,0.878,0.148,1.751,0.426,2.597c0.178,0.79,0.516,1.562,0.95,2.363h6.984l2.398-5.511
		c0.206-0.474,0.696-0.768,1.201-0.716c0.515,0.045,0.942,0.417,1.057,0.918l1.765,7.464l2.285-3.747
		c0.213-0.354,0.603-0.571,1.02-0.571h4.336c0.659,0,1.195,0.533,1.195,1.196c0,0.658-0.536,1.196-1.195,1.196h-3.663l-3.441,5.653
		c-0.219,0.359-0.606,0.574-1.018,0.574c-0.064,0-0.127-0.006-0.187-0.014c-0.481-0.077-0.861-0.433-0.978-0.905l-1.613-6.799
		L32.464,39.6c-0.191,0.441-0.622,0.72-1.098,0.72H17.414c-0.655,0-1.196-0.535-1.196-1.196c0-0.658,0.541-1.197,1.196-1.197h3.509
		c-0.25-0.594-0.449-1.168-0.575-1.728c-0.334-0.967-0.515-2.096-0.515-3.231c0-3.945,2.146-7.58,5.614-9.49
		c4.016-2.222,9.332-1.523,12.649,1.594c3.312-3.118,8.621-3.816,12.645-1.594C54.204,25.384,56.357,29.021,56.357,32.97z"/>
</g>
</svg>
