<svg xmlns="http://www.w3.org/2000/svg" width="75" height="75" viewBox="0 0 75 75"><path fill="#fff" d="M56.357 32.97c0 1.14-.188 2.267-.551 3.349-1.705 7.715-16.447 17.046-17.074 17.444-.196.122-.416.187-.64.187-.225 0-.448-.057-.645-.187-.168-.108-4.321-2.729-8.532-6.334-.505-.436-.559-1.185-.135-1.686.434-.499 1.183-.559 1.687-.134 3.141 2.682 6.313 4.848 7.631 5.723 4.427-2.888 14.202-10.23 15.4-15.65.313-.957.454-1.826.454-2.709 0-3.075-1.674-5.912-4.369-7.397-3.443-1.91-8.052-1.028-10.572 2.008-.451.547-1.383.547-1.845 0-2.526-3.041-7.131-3.913-10.569-2.012-2.707 1.489-4.38 4.32-4.38 7.394 0 .878.148 1.751.426 2.597.178.79.516 1.562.95 2.363h6.984l2.398-5.511c.206-.474.696-.768 1.201-.716.515.045.942.417 1.057.918l1.765 7.464 2.285-3.747c.213-.354.603-.571 1.02-.571h4.336c.659 0 1.195.533 1.195 1.196 0 .658-.536 1.196-1.195 1.196h-3.663l-3.441 5.653c-.219.359-.606.574-1.018.574l-.187-.014c-.481-.077-.861-.433-.978-.905l-1.613-6.799-1.275 2.936c-.191.441-.622.72-1.098.72h-13.952c-.655 0-1.196-.535-1.196-1.196 0-.658.541-1.197 1.196-1.197h3.509c-.25-.594-.449-1.168-.575-1.728-.334-.967-.515-2.096-.515-3.231 0-3.945 2.146-7.58 5.614-9.49 4.016-2.222 9.332-1.523 12.649 1.594 3.312-3.118 8.621-3.816 12.645-1.594 3.463 1.906 5.616 5.543 5.616 9.492z"/></svg>