<?xml version="1.0" encoding="utf-8"?>
<!-- Generator: Adobe Illustrator 16.0.4, SVG Export Plug-In . SVG Version: 6.00 Build 0)  -->
<!DOCTYPE svg PUBLIC "-//W3C//DTD SVG 1.1//EN" "http://www.w3.org/Graphics/SVG/1.1/DTD/svg11.dtd">
<svg version="1.1" id="Layer_1" xmlns="http://www.w3.org/2000/svg" xmlns:xlink="http://www.w3.org/1999/xlink" x="0px" y="0px"
	 width="100px" height="100px" viewBox="0 0 100 100" enable-background="new 0 0 100 100" xml:space="preserve">
<g>
	<g>
		<path fill="#FFFFFF" d="M50.454,54.274c-5.241,0-9.507,4.266-9.507,9.509c0,5.239,4.266,9.505,9.507,9.505
			c5.244,0,9.507-4.264,9.507-9.505C59.961,58.54,55.697,54.274,50.454,54.274z M50.454,69.009c-2.879,0-5.223-2.347-5.223-5.226
			c0-2.881,2.344-5.224,5.223-5.224c2.881,0,5.224,2.343,5.224,5.224C55.678,66.662,53.335,69.009,50.454,69.009z"/>
		<path fill="#FFFFFF" d="M50.454,43.919c-6.322,0-12.266,2.462-16.738,6.933c-0.834,0.841-0.834,2.194,0,3.028
			c0.417,0.421,0.968,0.627,1.516,0.627c0.546,0,1.095-0.206,1.514-0.627c3.66-3.66,8.529-5.68,13.708-5.68
			c5.18,0,10.047,2.02,13.71,5.68c0.834,0.84,2.191,0.84,3.027,0c0.837-0.834,0.837-2.188,0-3.028
			C62.721,46.381,56.776,43.919,50.454,43.919z"/>
		<path fill="#FFFFFF" d="M26.177,43.312c-0.838,0.836-0.838,2.191,0,3.028c0.834,0.836,2.19,0.836,3.028,0
			c11.716-11.716,30.783-11.716,42.499,0c0.419,0.415,0.968,0.625,1.514,0.625c0.549,0,1.096-0.21,1.515-0.625
			c0.836-0.836,0.836-2.192,0-3.028C61.346,29.926,39.562,29.926,26.177,43.312z"/>
		<path fill="#FFFFFF" d="M81.558,36.487c-8.311-8.306-19.354-12.881-31.104-12.881c-11.749,0-22.795,4.575-31.102,12.881
			c-0.836,0.838-0.836,2.192,0,3.028c0.836,0.838,2.191,0.838,3.028,0c7.497-7.499,17.468-11.628,28.074-11.628
			c10.606,0,20.577,4.129,28.077,11.628c0.419,0.419,0.967,0.631,1.512,0.631c0.55,0,1.097-0.211,1.516-0.631
			C82.394,38.679,82.394,37.325,81.558,36.487z"/>
	</g>
</g>
</svg>
