<svg xmlns="http://www.w3.org/2000/svg" width="100" height="100" viewBox="0 0 100 100"><g fill="#fff"><path d="M50.454 54.274c-5.241 0-9.507 4.266-9.507 9.509 0 5.239 4.266 9.505 9.507 9.505 5.244 0 9.507-4.264 9.507-9.505 0-5.243-4.264-9.509-9.507-9.509zm0 14.735c-2.879 0-5.223-2.347-5.223-5.226 0-2.881 2.344-5.224 5.223-5.224 2.881 0 5.224 2.343 5.224 5.224 0 2.879-2.343 5.226-5.224 5.226zM50.454 43.919c-6.322 0-12.266 2.462-16.738 6.933-.834.841-.834 2.194 0 3.028.417.421.968.627 1.516.627.546 0 1.095-.206 1.514-.627 3.66-3.66 8.529-5.68 13.708-5.68 5.18 0 10.047 2.02 13.71 5.68.834.84 2.191.84 3.027 0 .837-.834.837-2.188 0-3.028-4.47-4.471-10.415-6.933-16.737-6.933zM26.177 43.312c-.838.836-.838 2.191 0 3.028.834.836 2.19.836 3.028 0 11.716-11.716 30.783-11.716 42.499 0 .419.415.968.625 1.514.625.549 0 1.096-.21 1.515-.625.836-.836.836-2.192 0-3.028-13.387-13.386-35.171-13.386-48.556 0zM81.558 36.487c-8.311-8.306-19.354-12.881-31.104-12.881-11.749 0-22.795 4.575-31.102 12.881-.836.838-.836 2.192 0 3.028.836.838 2.191.838 3.028 0 7.497-7.499 17.468-11.628 28.074-11.628 10.606 0 20.577 4.129 28.077 11.628.419.419.967.631 1.512.631.55 0 1.097-.211 1.516-.631.835-.836.835-2.19-.001-3.028z"/></g></svg>