<svg xmlns="http://www.w3.org/2000/svg" width="223.5" height="223.5" viewBox="137.5 -26 223.5 223.5" enable-background="new 137.5 -26 223.5 223.5"><filter id="a"><feGaussianBlur stdDeviation="4"/></filter><path fill="#020202" d="M214.957-12.514c37.414 0 67.743 30.328 67.743 67.741 0 37.416-67.743 118.762-67.743 118.762s-67.742-81.346-67.742-118.762c0-37.413 30.328-67.741 67.742-67.741z" opacity=".4" filter="url(#a)" enable-background="new"/><path fill="#0091F4" d="M215.224 162.216s-58.486-71.468-58.486-103.723c0-32.248 26.238-58.489 58.486-58.489 32.252 0 58.493 26.241 58.493 58.489 0 32.256-58.493 103.723-58.493 103.723z"/><path opacity=".4" fill="#050505" d="M216.229 168.217s60.654-28.618 88.484-29.697c27.83-1.082 50.926 9.799 51.492 24.262.558 14.455-21.625 27.097-49.455 28.181-27.829 1.075-90.521-22.746-90.521-22.746z"/><circle fill="#fff" cx="215.226" cy="55.138" r="22.797"/></svg>