<?xml version="1.0" encoding="utf-8"?>
<!-- Generator: Adobe Illustrator 16.0.4, SVG Export Plug-In . SVG Version: 6.00 Build 0)  -->
<!DOCTYPE svg PUBLIC "-//W3C//DTD SVG 1.1//EN" "http://www.w3.org/Graphics/SVG/1.1/DTD/svg11.dtd">
<svg version="1.1" id="Layer_1" xmlns="http://www.w3.org/2000/svg" xmlns:xlink="http://www.w3.org/1999/xlink" x="0px" y="0px"
	 width="223.5px" height="223.5px" viewBox="137.5 -26 223.5 223.5" enable-background="new 137.5 -26 223.5 223.5"
	 xml:space="preserve">
<filter  id="a">
	<feGaussianBlur  stdDeviation="4"></feGaussianBlur>
</filter>
<g opacity="0.4" filter="url(#a)" enable-background="new    ">
	<path fill="#020202" d="M214.957-12.514c37.414,0,67.743,30.328,67.743,67.741c0,37.416-67.743,118.762-67.743,118.762
		s-67.742-81.346-67.742-118.762C147.215,17.814,177.543-12.514,214.957-12.514z"/>
</g>
<path fill="#0091F4" d="M215.224,162.216c0,0-58.486-71.468-58.486-103.723c0-32.248,26.238-58.489,58.486-58.489
	c32.252,0,58.493,26.241,58.493,58.489C273.717,90.749,215.224,162.216,215.224,162.216z"/>
<path opacity="0.4" fill="#050505" d="M216.229,168.217c0,0,60.654-28.618,88.484-29.697c27.83-1.082,50.926,9.799,51.492,24.262
	c0.558,14.455-21.625,27.097-49.455,28.181C278.921,192.038,216.229,168.217,216.229,168.217z"/>
<circle fill="#FFFFFF" cx="215.226" cy="55.138" r="22.797"/>
</svg>
