<svg xmlns="http://www.w3.org/2000/svg" width="75" height="75" viewBox="0 0 75 75"><g fill="#fff"><path d="M37.928 41.279c-3.352 0-6.079 2.728-6.079 6.081 0 3.351 2.727 6.079 6.079 6.079 3.353 0 6.08-2.727 6.08-6.079 0-3.353-2.727-6.081-6.08-6.081zm0 9.422c-1.841 0-3.341-1.5-3.341-3.342s1.5-3.34 3.341-3.34c1.843 0 3.341 1.498 3.341 3.34 0 1.842-1.498 3.342-3.341 3.342zM37.928 34.657c-4.042 0-7.845 1.574-10.704 4.434-.533.538-.533 1.403 0 1.937.267.269.618.401.969.401.35 0 .701-.132.968-.401 2.341-2.341 5.455-3.632 8.767-3.632 3.313 0 6.425 1.292 8.768 3.632.534.537 1.402.537 1.936 0 .535-.534.535-1.399 0-1.937-2.86-2.86-6.66-4.434-10.704-4.434zM22.403 34.269c-.536.535-.536 1.401 0 1.936.533.535 1.4.535 1.936 0 7.493-7.493 19.686-7.493 27.178 0 .268.266.619.4.969.4s.7-.134.968-.4c.534-.535.534-1.401 0-1.936-8.56-8.561-22.491-8.561-31.051 0zM57.82 29.903c-5.314-5.312-12.378-8.238-19.892-8.238-7.513 0-14.578 2.926-19.89 8.238-.535.536-.535 1.401 0 1.937s1.402.536 1.937 0c4.795-4.796 11.172-7.437 17.954-7.437 6.783 0 13.159 2.641 17.955 7.437.268.268.618.403.967.403.351 0 .701-.135.969-.403.534-.535.534-1.401 0-1.937z"/></g></svg>