<?xml version="1.0" encoding="utf-8"?>
<!-- Generator: Adobe Illustrator 16.0.4, SVG Export Plug-In . SVG Version: 6.00 Build 0)  -->
<!DOCTYPE svg PUBLIC "-//W3C//DTD SVG 1.1//EN" "http://www.w3.org/Graphics/SVG/1.1/DTD/svg11.dtd">
<svg version="1.1" id="Layer_1" xmlns="http://www.w3.org/2000/svg" xmlns:xlink="http://www.w3.org/1999/xlink" x="0px" y="0px"
	 width="75px" height="75px" viewBox="0 0 75 75" enable-background="new 0 0 75 75" xml:space="preserve">
<g>
	<g>
		<path fill="#FFFFFF" d="M37.928,41.279c-3.352,0-6.079,2.728-6.079,6.081c0,3.351,2.727,6.079,6.079,6.079
			c3.353,0,6.08-2.727,6.08-6.079C44.008,44.007,41.281,41.279,37.928,41.279z M37.928,50.701c-1.841,0-3.341-1.5-3.341-3.342
			c0-1.842,1.5-3.34,3.341-3.34c1.843,0,3.341,1.498,3.341,3.34C41.269,49.201,39.771,50.701,37.928,50.701z"/>
		<path fill="#FFFFFF" d="M37.928,34.657c-4.042,0-7.845,1.574-10.704,4.434c-0.533,0.538-0.533,1.403,0,1.937
			c0.267,0.269,0.618,0.401,0.969,0.401c0.35,0,0.701-0.132,0.968-0.401c2.341-2.341,5.455-3.632,8.767-3.632
			c3.313,0,6.425,1.292,8.768,3.632c0.534,0.537,1.402,0.537,1.936,0c0.535-0.534,0.535-1.399,0-1.937
			C45.772,36.231,41.972,34.657,37.928,34.657z"/>
		<path fill="#FFFFFF" d="M22.403,34.269c-0.536,0.535-0.536,1.401,0,1.936c0.533,0.535,1.4,0.535,1.936,0
			c7.493-7.493,19.686-7.493,27.178,0c0.268,0.266,0.619,0.4,0.969,0.4s0.7-0.134,0.968-0.4c0.534-0.535,0.534-1.401,0-1.936
			C44.894,25.708,30.963,25.708,22.403,34.269z"/>
		<path fill="#FFFFFF" d="M57.82,29.903c-5.314-5.312-12.378-8.238-19.892-8.238c-7.513,0-14.578,2.926-19.89,8.238
			c-0.535,0.536-0.535,1.401,0,1.937c0.535,0.536,1.402,0.536,1.937,0c4.795-4.796,11.172-7.437,17.954-7.437
			c6.783,0,13.159,2.641,17.955,7.437c0.268,0.268,0.618,0.403,0.967,0.403c0.351,0,0.701-0.135,0.969-0.403
			C58.354,31.305,58.354,30.439,57.82,29.903z"/>
	</g>
</g>
</svg>
