<svg xmlns="http://www.w3.org/2000/svg" width="75" height="75" viewBox="0 0 75 75"><g fill="#fff"><path d="M38.675 16.295c-.265-.357-.704-.571-1.174-.571-.473 0-.91.214-1.174.568-1.587 2.148-15.512 21.187-15.512 29.085 0 8.441 7.484 15.308 16.686 15.308 9.2 0 16.684-6.867 16.684-15.308 0-7.904-13.923-26.938-15.51-29.082zm-1.174 41.782c-7.635 0-13.846-5.696-13.846-12.7 0-6.192 11.246-22.344 13.5-25.52l.346-.486.345.486c2.253 3.177 13.5 19.333 13.5 25.52-.001 7.004-6.212 12.7-13.845 12.7zM45.993 38.648c-.231-.463-.739-.763-1.294-.763-.204 0-.402.039-.587.119-.346.144-.609.403-.742.73-.131.324-.119.679.039.996 1.873 3.765 2.075 5.204 2.075 5.649 0 4.038-3.58 7.322-7.982 7.322-.783 0-1.421.586-1.421 1.305 0 .716.639 1.301 1.421 1.301 5.967 0 10.822-4.453 10.822-9.93-.001-1.377-.763-3.576-2.331-6.729zM42.424 32.199c-.322-.537-.55-.923-.737-1.246-.463-.789-.717-1.222-1.676-2.675-.26-.395-.714-.628-1.216-.628-.258 0-.511.068-.733.19-.326.18-.554.463-.645.804-.09.339-.032.687.165.985.922 1.395 1.137 1.76 1.606 2.562l.069.119.679 1.146c.363.605 1.262.848 1.93.516.683-.348.935-1.143.558-1.773z"/></g></svg>