<?xml version="1.0" encoding="utf-8"?>
<!-- Generator: Adobe Illustrator 16.0.4, SVG Export Plug-In . SVG Version: 6.00 Build 0)  -->
<!DOCTYPE svg PUBLIC "-//W3C//DTD SVG 1.1//EN" "http://www.w3.org/Graphics/SVG/1.1/DTD/svg11.dtd">
<svg version="1.1" id="Layer_1" xmlns="http://www.w3.org/2000/svg" xmlns:xlink="http://www.w3.org/1999/xlink" x="0px" y="0px"
	 width="75px" height="75px" viewBox="0 0 75 75" enable-background="new 0 0 75 75" xml:space="preserve">
<g>
	<path fill="#FFFFFF" d="M38.675,16.295c-0.265-0.357-0.704-0.571-1.174-0.571c-0.473,0-0.91,0.214-1.174,0.568
		c-1.587,2.148-15.512,21.187-15.512,29.085c0,8.441,7.484,15.308,16.686,15.308c9.2,0,16.684-6.867,16.684-15.308
		C54.185,37.473,40.262,18.439,38.675,16.295z M37.501,58.077c-7.635,0-13.846-5.696-13.846-12.7c0-6.192,11.246-22.344,13.5-25.52
		l0.346-0.486l0.345,0.486c2.253,3.177,13.5,19.333,13.5,25.52C51.345,52.381,45.134,58.077,37.501,58.077z"/>
	<path fill="#FFFFFF" d="M45.993,38.648c-0.231-0.463-0.739-0.763-1.294-0.763c-0.204,0-0.402,0.039-0.587,0.119
		c-0.346,0.144-0.609,0.403-0.742,0.73c-0.131,0.324-0.119,0.679,0.039,0.996c1.873,3.765,2.075,5.204,2.075,5.649
		c0,4.038-3.58,7.322-7.982,7.322c-0.783,0-1.421,0.586-1.421,1.305c0,0.716,0.639,1.301,1.421,1.301
		c5.967,0,10.822-4.453,10.822-9.93C48.323,44,47.561,41.801,45.993,38.648z"/>
	<path fill="#FFFFFF" d="M42.424,32.199c-0.322-0.537-0.55-0.923-0.737-1.246c-0.463-0.789-0.717-1.222-1.676-2.675
		c-0.26-0.395-0.714-0.628-1.216-0.628c-0.258,0-0.511,0.068-0.733,0.19c-0.326,0.18-0.554,0.463-0.645,0.804
		c-0.09,0.339-0.032,0.687,0.165,0.985c0.922,1.395,1.137,1.76,1.606,2.562l0.069,0.119c0.179,0.301,0.391,0.664,0.679,1.146
		c0.363,0.605,1.262,0.848,1.93,0.516C42.549,33.624,42.801,32.829,42.424,32.199z"/>
</g>
</svg>
